# xmcd
#
# Track frame offsets: 
#        150
#        7909
#        22192
#        34617
#        48137
#        61012
#        69858
#        82874
#        96330
#        118520
#        129355
#        140131
#        157966
#        173874
#        187317
#        203937
#        221249
#        229912
#        246874
#        260848
#        273949
#        292363
#        308016
#
# Disc length: 4393 seconds
#
# Revision: 0
# Processed by: cddbd v1.5.2PL0 Copyright (c) Steve Scherf et al.
# Submitted via: ExactAudioCopy v1.3
#
DISCID=51112717
DTITLE=Fesaci - 50 let [CD1)
DYEAR=2017
DGENRE=Country
TTITLE0=Bluegrass Hoppers (pozdeji Fesaci) - Darling
TTITLE1=Bluegrass Hoppers (pozdeji Fesaci) - Posledni verejne obeseni 
TTITLE1=v Zapadni Virginii
TTITLE2=Tak jako driv
TTITLE3=Pojedou
TTITLE4=Cim jezdi laska
TTITLE5=Matterhorn
TTITLE6=Jaro
TTITLE7=Sundej z hodin zavazi
TTITLE8=Svita ve tvych tvarich
TTITLE9=Nadrazi
TTITLE10=Hej, chlapce s tamburinou
TTITLE11=Lojza a Liza
TTITLE12=Zvony
TTITLE13=Prodavac
TTITLE14=Muz s hlasem medovym
TTITLE15=Pani ma se ma
TTITLE16=Posta Fesaci 1
TTITLE17=Sefe
TTITLE18=Duhove znameni
TTITLE19=Balim a odchazim
TTITLE20=Suzy
TTITLE21=Hvezda Countryon
TTITLE22=Komedianti nestarnou
EXTD=
EXTT0=
EXTT1=
EXTT2=
EXTT3=
EXTT4=
EXTT5=
EXTT6=
EXTT7=
EXTT8=
EXTT9=
EXTT10=
EXTT11=
EXTT12=
EXTT13=
EXTT14=
EXTT15=
EXTT16=
EXTT17=
EXTT18=
EXTT19=
EXTT20=
EXTT21=
EXTT22=
PLAYORDER=
